<?xml version="1.0" encoding="UTF-8" standalone="no"?>
<svg
   xmlns:dc="http://purl.org/dc/elements/1.1/"
   xmlns:cc="http://creativecommons.org/ns#"
   xmlns:rdf="http://www.w3.org/1999/02/22-rdf-syntax-ns#"
   xmlns:svg="http://www.w3.org/2000/svg"
   xmlns="http://www.w3.org/2000/svg"
   xmlns:sodipodi="http://sodipodi.sourceforge.net/DTD/sodipodi-0.dtd"
   xmlns:inkscape="http://www.inkscape.org/namespaces/inkscape"
   version="1.1"
   id="Layer_1"
   x="0px"
   y="0px"
   width="127.559px"
   height="127.559px"
   viewBox="0 0 127.559 127.559"
   enable-background="new 0 0 127.559 127.559"
   xml:space="preserve"
   inkscape:version="0.91 r13725"
   sodipodi:docname="feedback-logo.svg"><metadata
     id="metadata3353"><rdf:RDF><cc:Work
         rdf:about=""><dc:format>image/svg+xml</dc:format><dc:type
           rdf:resource="http://purl.org/dc/dcmitype/StillImage" /></cc:Work></rdf:RDF></metadata><defs
     id="defs3351" /><sodipodi:namedview
     pagecolor="#ffffff"
     bordercolor="#666666"
     borderopacity="1"
     objecttolerance="10"
     gridtolerance="10"
     guidetolerance="10"
     inkscape:pageopacity="0"
     inkscape:pageshadow="2"
     inkscape:window-width="1920"
     inkscape:window-height="1137"
     id="namedview3349"
     showgrid="false"
     inkscape:zoom="5.2329417"
     inkscape:cx="42.210085"
     inkscape:cy="45.083977"
     inkscape:window-x="1912"
     inkscape:window-y="-8"
     inkscape:window-maximized="1"
     inkscape:current-layer="Layer_1"
     inkscape:object-nodes="true"
     inkscape:snap-smooth-nodes="true" /><g
     id="g3360"
     transform="translate(-11.96394,20.107586)"><rect
       x="81.808907"
       y="25.795864"
       style="fill:#ae1c28"
       width="10.191097"
       height="22.204136"
       id="rect3364" /><polygon
       style="fill:#21468b"
       points="64,25 103,58 103,104 25,104 25,58 "
       id="polygon3370" /><polygon
       style="fill:#ffffff"
       points="64,32.193 103,65.258 103,58 64,25 25,58 25,65.258 "
       id="polygon3372" /><rect
       x="37"
       y="68"
       style="fill:#ffffff"
       width="16"
       height="20"
       id="rect3380" /><rect
       x="77"
       y="74"
       style="fill:#ffffff"
       width="16"
       height="30"
       id="rect3386" /><path
       style="fill:#ae1c28"
       d="M 107.413,66 64,29.193 20.587,66 l -5.174,-6.102 46,-39 c 1.492,-1.266 3.683,-1.266 5.174,0 l 46,39 -5.174,6.102 z"
       id="path3408"
       inkscape:connector-curvature="0" /><path
       style="fill:#ffffff"
       d="m 64,58 c -4.411,0 -8,-3.589 -8,-8 0,-4.411 3.589,-8 8,-8 4.411,0 8,3.589 8,8 0,4.411 -3.589,8 -8,8 z"
       id="path3412"
       inkscape:connector-curvature="0" /><path
       style="fill:#ff7f00;stroke-width:0px"
       d="M 39.645375,32.435714 C 49.570576,12.04966 69.235202,-1.9744054 96.783751,4.9677348 L 94.179112,11.819262 110.72488,7.5308395 101.67312,-8.544189 98.469982,-1.4198632 C 77.198901,-9.5257491 45.010919,-2.7549747 32.670333,28.900416 Z"
       id="path3420"
       inkscape:connector-curvature="0"
       sodipodi:nodetypes="cccccccc" /><path
       style="fill:#ff7f00;stroke-width:0px"
       d="m 110.9864,14.745196 c 16.8471,16.893793 20.73114,34.107105 11.75248,58.475714 l -7.163,-3.973444 0.81306,19.069802 18.8668,-7.452474 -6.9971,-3.947714 c 14.34135,-22.316976 7.9823,-51.774386 -11.44377,-68.1914433 z"
       id="path3420-2"
       inkscape:connector-curvature="0"
       sodipodi:nodetypes="cccccccc" /></g><circle
     style="fill:none;opacity:0.75"
     id="Yellow Helper"
     cx="70.804634"
     cy="69.43763"
     r="50" /></svg>