<?xml version="1.0" encoding="UTF-8" standalone="no"?>
<svg
   xmlns:dc="http://purl.org/dc/elements/1.1/"
   xmlns:cc="http://creativecommons.org/ns#"
   xmlns:rdf="http://www.w3.org/1999/02/22-rdf-syntax-ns#"
   xmlns:svg="http://www.w3.org/2000/svg"
   xmlns="http://www.w3.org/2000/svg"
   xmlns:sodipodi="http://sodipodi.sourceforge.net/DTD/sodipodi-0.dtd"
   xmlns:inkscape="http://www.inkscape.org/namespaces/inkscape"
   version="1.1"
   id="Layer_1"
   x="0px"
   y="0px"
   width="127.559px"
   height="127.559px"
   viewBox="0 0 127.559 127.559"
   enable-background="new 0 0 127.559 127.559"
   xml:space="preserve"
   inkscape:version="0.91 r13725"
   sodipodi:docname="report-upload.svg"
   inkscape:export-filename="C:\Users\Sander\git\josm-nl-pdok-feedback\src\main\resources\images\report-upload.png"
   inkscape:export-xdpi="180"
   inkscape:export-ydpi="180"><metadata
     id="metadata3353"><rdf:RDF><cc:Work
         rdf:about=""><dc:format>image/svg+xml</dc:format><dc:type
           rdf:resource="http://purl.org/dc/dcmitype/StillImage" /></cc:Work></rdf:RDF></metadata><defs
     id="defs3351" /><sodipodi:namedview
     pagecolor="#ffffff"
     bordercolor="#666666"
     borderopacity="1"
     objecttolerance="10"
     gridtolerance="10"
     guidetolerance="10"
     inkscape:pageopacity="0"
     inkscape:pageshadow="2"
     inkscape:window-width="1920"
     inkscape:window-height="1137"
     id="namedview3349"
     showgrid="false"
     inkscape:zoom="5.2329417"
     inkscape:cx="36.408893"
     inkscape:cy="61.442789"
     inkscape:window-x="1912"
     inkscape:window-y="-8"
     inkscape:window-maximized="1"
     inkscape:current-layer="g3360"
     inkscape:object-nodes="true"
     inkscape:snap-smooth-nodes="true" /><g
     id="g3360"
     transform="translate(-11.96394,20.107586)"><rect
       x="81.808907"
       y="25.795864"
       style="fill:#ae1c28"
       width="10.191097"
       height="22.204136"
       id="rect3364" /><polygon
       style="fill:#21468b"
       points="64,25 103,58 103,104 25,104 25,58 "
       id="polygon3370" /><polygon
       style="fill:#ffffff"
       points="64,32.193 103,65.258 103,58 64,25 25,58 25,65.258 "
       id="polygon3372" /><rect
       x="37"
       y="68"
       style="fill:#ffffff"
       width="16"
       height="20"
       id="rect3380" /><rect
       x="77"
       y="74"
       style="fill:#ffffff"
       width="16"
       height="30"
       id="rect3386" /><path
       style="fill:#ae1c28"
       d="M 107.413,66 64,29.193 20.587,66 l -5.174,-6.102 46,-39 c 1.492,-1.266 3.683,-1.266 5.174,0 l 46,39 -5.174,6.102 z"
       id="path3408"
       inkscape:connector-curvature="0" /><path
       style="fill:#ffffff"
       d="m 64,58 c -4.411,0 -8,-3.589 -8,-8 0,-4.411 3.589,-8 8,-8 4.411,0 8,3.589 8,8 0,4.411 -3.589,8 -8,8 z"
       id="path3412"
       inkscape:connector-curvature="0" /><text
       xml:space="preserve"
       style="font-style:normal;font-weight:normal;font-size:140px;line-height:125%;font-family:sans-serif;letter-spacing:0px;word-spacing:0px;fill:#ff7f00;fill-opacity:1;stroke:none;stroke-width:1px;stroke-linecap:butt;stroke-linejoin:miter;stroke-opacity:1"
       x="105.98371"
       y="92.736938"
       id="text3354"
       sodipodi:linespacing="125%"><tspan
         sodipodi:role="line"
         id="tspan3356"
         x="105.98371"
         y="92.736938">i</tspan></text>
</g><circle
     style="fill:none;opacity:0.75"
     id="Yellow Helper"
     cx="70.804634"
     cy="69.43763"
     r="50" /></svg>