<svg id="Laag_2" data-name="Laag 2" xmlns="http://www.w3.org/2000/svg" viewBox="0 0 85.04 85.04">
	<path style="fill:none;stroke:#1d1d1b;stroke-miterlimit:10;stroke-width:4px;" d="M42.51,9.61A22.69,22.69,0,0,1,63.23,41.5L47.85,71.58c-0.92,1.88-3.11,3.8-5.35,3.8s-4.42-1.92-5.35-3.8L21.78,41.5A22.69,22.69,0,0,1,42.51,9.61Z"/>
	<path style="fill:#0093be;" d="M42.51,9.61A22.69,22.69,0,0,1,63.23,41.5L47.85,71.58c-0.92,1.88-3.11,3.8-5.35,3.8s-4.42-1.92-5.35-3.8L21.78,41.5A22.69,22.69,0,0,1,42.51,9.61Z"/>
	<path style="fill:#fff;" d="M42.52,19.83A12.78,12.78,0,1,0,55.29,32.61,12.79,12.79,0,0,0,42.52,19.83Z"/>
	<rect style="fill:#0093be;" x="36.84" y="24.11" width="11.34" height="17.01" rx="1.42" ry="1.42" transform="translate(75.12 -9.9) rotate(90)"/>
</svg>