<?xml version="1.0" encoding="utf-8"?>
<!-- Generator: Adobe Illustrator 19.2.1, SVG Export Plug-In . SVG Version: 6.00 Build 0)  -->
<svg version="1.1" id="Laag_1" xmlns="http://www.w3.org/2000/svg" xmlns:xlink="http://www.w3.org/1999/xlink" x="0px" y="0px"
	 viewBox="0 0 85 85" style="enable-background:new 0 0 85 85;" xml:space="preserve">
	<path style="fill:#007395;" d="M42.9,4c14.7,0,26.5,11.9,26.5,26.5c0,3.8-0.8,7.5-2.3,10.8l-18,35.2c-1.1,2.2-3.6,4.4-6.3,4.4
		c-2.6,0-5.2-2.3-6.3-4.4l-18-35.2c-1.5-3.3-2.3-6.9-2.3-10.8C16.4,15.9,28.3,4,42.9,4z"/>
	<circle style="fill:#FFFFFF;" cx="42.9" cy="30.3" r="18.4"/>
	<path d="M42.9,82.2c-3.1,0-6.1-2.6-7.3-5.1l-18-35.2c-1.6-3.6-2.4-7.4-2.4-11.3c0-15.3,12.4-27.7,27.7-27.7s27.7,12.4,27.7,27.7
		c0,3.9-0.8,7.7-2.4,11.3l-18,35.2C49,79.6,46.1,82.2,42.9,82.2z M42.9,5.2c-14,0-25.4,11.4-25.4,25.4c0,3.6,0.7,7.1,2.2,10.3
		l18,35.1c0.9,1.9,3.1,3.8,5.2,3.8s4.3-1.9,5.2-3.8l18-35.2c1.4-3.2,2.2-6.7,2.2-10.2C68.3,16.6,56.9,5.2,42.9,5.2z"/>
</svg>
