<svg id="Laag_2" data-name="Laag 2" xmlns="http://www.w3.org/2000/svg" viewBox="0 0 85.04 85.04">
	<path style="fill:none;stroke:#1d1d1b;stroke-miterlimit:10;stroke-width:4px;" d="M42.51,9.61A22.69,22.69,0,0,1,63.23,41.5L47.85,71.58c-0.92,1.88-3.11,3.8-5.35,3.8s-4.42-1.92-5.35-3.8L21.78,41.5A22.69,22.69,0,0,1,42.51,9.61Z"/>
	<path style="fill:#ff00ff;" d="M42.51,9.61A22.69,22.69,0,0,1,63.23,41.5L47.85,71.58c-0.92,1.88-3.11,3.8-5.35,3.8s-4.42-1.92-5.35-3.8L21.78,41.5A22.69,22.69,0,0,1,42.51,9.61Z"/>
	<path style="fill:#fff;" d="M42.52,19.83A12.78,12.78,0,1,0,55.29,32.61,12.79,12.79,0,0,0,42.52,19.83Z"/>
	<path style="fill:#ff00ff;" d="m 53.46757,30.786123 -9.166667,0 0,-9.166667 -3.666666,0 0,9.166667 -9.166667,0 0,3.666666 9.166667,0 0,9.166667 3.666666,0 0,-9.166667 9.166667,0 z"/>
</svg>