<svg id="Laag_2" data-name="Laag 2" xmlns="http://www.w3.org/2000/svg" viewBox="0 0 85.04 85.04">
	<path style="fill:none;stroke:#1d1d1b;stroke-miterlimit:10;stroke-width:4px;" d="M42.51,9.61A22.69,22.69,0,0,1,63.23,41.5L47.85,71.58c-0.92,1.88-3.11,3.8-5.35,3.8s-4.42-1.92-5.35-3.8L21.78,41.5A22.69,22.69,0,0,1,42.51,9.61Z"/>
	<path style="fill:#004079;" d="M42.51,9.61A22.69,22.69,0,0,1,63.23,41.5L47.85,71.58c-0.92,1.88-3.11,3.8-5.35,3.8s-4.42-1.92-5.35-3.8L21.78,41.5A22.69,22.69,0,0,1,42.51,9.61Z"/>
	<path style="fill:#fff;" d="M42.52,19.83A12.78,12.78,0,1,0,55.29,32.61,12.79,12.79,0,0,0,42.52,19.83Z"/>
	<path style="fill:#004079;" d="M40.82,41.1V34.69h1.84a9,9,0,0,0,3.59-.5A4,4,0,0,0,48,32.44a6.26,6.26,0,0,0,.7-3.09A6.16,6.16,0,0,0,47.88,26a3.75,3.75,0,0,0-2-1.68,13.82,13.82,0,0,0-3.3-.24H38v17h2.8ZM42.19,27a8.42,8.42,0,0,1,2.31.2,1.83,1.83,0,0,1,.92.78,2.94,2.94,0,0,1,0,2.84,1.9,1.9,0,0,1-.92.8,6.78,6.78,0,0,1-2.13.22H40.82V27h1.37Z"/>
</svg>