<svg id="Laag_2" data-name="Laag 2" xmlns="http://www.w3.org/2000/svg" viewBox="0 0 85.04 85.04">
	<path style="fill:none;stroke:#1d1d1b;stroke-miterlimit:10;stroke-width:4px;" d="M42.51,9.61A22.69,22.69,0,0,1,63.23,41.5L47.85,71.58c-0.92,1.88-3.11,3.8-5.35,3.8s-4.42-1.92-5.35-3.8L21.78,41.5A22.69,22.69,0,0,1,42.51,9.61Z"/>
	<path style="fill:#bbbbbb;" d="M42.51,9.61A22.69,22.69,0,0,1,63.23,41.5L47.85,71.58c-0.92,1.88-3.11,3.8-5.35,3.8s-4.42-1.92-5.35-3.8L21.78,41.5A22.69,22.69,0,0,1,42.51,9.61Z"/>
	<path style="fill:#fff;" d="M42.52,19.83A12.78,12.78,0,1,0,55.29,32.61,12.79,12.79,0,0,0,42.52,19.83Z"/>
	<path style="fill:#bbbbbb;" d="M44,35.72a5.45,5.45,0,0,1,1.28-1.57,14.53,14.53,0,0,0,2.62-3,4.65,4.65,0,0,0,.61-2.3,5.19,5.19,0,0,0-1.74-4,6.22,6.22,0,0,0-4.37-1.6,6.06,6.06,0,0,0-4.29,1.59,5.73,5.73,0,0,0-1.84,4.07l3,0.42q0.61-3.25,3.23-3.25a2.86,2.86,0,0,1,2,.74,2.46,2.46,0,0,1,.8,1.89A2.38,2.38,0,0,1,45,30a12.17,12.17,0,0,1-1.86,2,7.71,7.71,0,0,0-1.87,2.32A6.71,6.71,0,0,0,40.84,37v0.85h3A5.92,5.92,0,0,1,44,35.72Z"/>
	<rect style="fill:#bbbbbb;" x="40.85" y="39.13" width="3.26" height="3.71"/>
</svg>